<svg xmlns="http://www.w3.org/2000/svg" width="700.971" height="85.86" viewBox="0 0 700.971 85.86"><path d="M59.22-1.53c0,8.28.81,15.84,3.6,15.84,3.51-.09,5.22-8.19,4.95-21.15V-31.77H81.54c6.3,0,7.2-4.32.81-5.76-2.7-.27-7.29-.54-8.1.54-1.53,1.44-4.05,1.71-6.48,1.98V-61.38a26.964,26.964,0,0,1,1.08-5.49,1.783,1.783,0,0,0-1.26-2.43c-4.32-1.44-11.61-2.25-16.2-2.25-2.88,0-3.33,2.79-1.26,3.06a16.931,16.931,0,0,1,7.29,2.79c1.53,1.17,1.8,3.15,1.8,6.03ZM30.96-29.25c4.68,4.68,10.17,10.71,12.69,13.23,4.77,5.04,9.45,2.52,6.57-2.34a27.6,27.6,0,0,0-4.68-6.93,6.6,6.6,0,0,0-2.97-1.8c-.72-.27-1.44-.63-2.79-1.26-1.44-.72-6.66-5.4-10.26-8.73A67.8,67.8,0,0,0,36.9-51.03a19.2,19.2,0,0,1,1.08-2.61c.63-1.44.27-2.43-2.16-3.42a53.944,53.944,0,0,0-11.07-2.52c-3.51-.45-4.59,1.8-1.26,3.24,3.15,1.35,3.6,2.7,2.79,5.67C22.41-37.89,12.96-23.31,2.52-14.13c-2.61,2.16-.18,4.41,4.86,1.08C14.13-17.64,21.24-25.02,27-33.3ZM159.03,10.71c6.21,0,5.94-5.04.72-5.49-.99-.09-2.34-.18-3.87-.18h-2.25a13.935,13.935,0,0,0-1.98.09,7.783,7.783,0,0,0-2.43.72,12.5,12.5,0,0,1-6.48,1.26l-15.66.18a2.726,2.726,0,0,1-3.06-2.97V-3.42h3.33c5.76,0,16.56-.27,22.86-.27h3.78c3.51,0,4.23-.63,4.23-1.98,0-.99-1.26-1.62-3.06-1.71l2.07-9.54a16.664,16.664,0,0,1,.99-2.79c.45-.99.45-2.25-1.62-2.61a33.371,33.371,0,0,0-8.01-.18,4.143,4.143,0,0,0-1.89.72,11.208,11.208,0,0,1-3.42.63c-1.35.09-3.06.18-4.95.18h-5.58c-3.6,0-6.93-.09-8.28-.09-3.96-.09-8.55-.36-12.06-.81-2.79-.36-3.42.9-1.62,2.25a33.5,33.5,0,0,0,6.93,3.51,6.889,6.889,0,0,0,4.95,0,32.524,32.524,0,0,1,5.85-1.53c1.17-.09,5.13-.18,9.09-.18h10.17l-.45,10.53c-3.06,0-12.24.18-18.36.18h-4.86a71.514,71.514,0,0,0-10.71-.81h-2.52c-2.61,0-3.06,2.88-.36,3.15,2.97.18,4.5,1.44,4.5,3.69V4.95c0,5.49,4.68,6.03,9.63,6.03ZM131.04-29.52c4.77,4.05,7.74,1.35,5.76-2.34a22.629,22.629,0,0,0-5.85-7.2,6.311,6.311,0,0,0-2.52-1.08,7.682,7.682,0,0,1-2.88-1.08,66.094,66.094,0,0,1-7.56-5.22,55.56,55.56,0,0,0,6.39-10.35c.36-.99.99-2.16,1.26-2.88.45-1.44.45-2.43-1.98-3.42a49.772,49.772,0,0,0-10.62-2.7c-3.6-.45-4.68,1.62-1.35,3.06,3.15,1.35,3.87,2.88,2.7,5.67-4.32,10.98-14.04,22.68-24.75,29.79-2.88,1.98-.27,3.78,4.95,1.17a76.058,76.058,0,0,0,20.52-16.83Zm18.54-6.75c.09,6.57,1.08,11.43,3.51,11.34s4.95-6.3,4.95-15.66v-20.7a19.114,19.114,0,0,1,.99-5.58,1.783,1.783,0,0,0-1.26-2.43,60.031,60.031,0,0,0-16.11-2.25c-2.79,0-3.24,2.79-1.17,3.06a17.389,17.389,0,0,1,7.29,2.79c1.53,1.17,1.8,3.15,1.8,6.03Zm81.54-6.3a13.212,13.212,0,0,0,1.53-6.21c0-7.47-5.67-13.95-15.75-15.48-.63-.09-.54-.54-.45-1.17a9.067,9.067,0,0,0,.54-1.71c.09-.45-.09-1.26-1.8-1.62a29.449,29.449,0,0,0-5.58-.63c-2.79,0-2.88,1.89-1.53,2.52q1.35.675,1.35,1.35a1.188,1.188,0,0,1-.99,1.26c-9.72,1.17-16.47,7.2-16.47,15.48,0,8.64,8.64,15.57,20.52,15.57C221.4-33.21,228.24-36.99,231.12-42.57Zm-14.04,3.69a12.274,12.274,0,0,1-4.59.81c-6.84,0-11.61-4.86-11.61-11.34,0-6.57,4.77-11.34,11.61-11.34a11.175,11.175,0,0,1,11.34,11.34A10.979,10.979,0,0,1,217.08-38.88ZM238.86,9.54c5.58,0,5.4-4.86.18-5.58-1.08-.09-2.7-.27-4.41-.27H232.2a14.6,14.6,0,0,0-2.07.09,6.886,6.886,0,0,0-2.52.81,11.989,11.989,0,0,1-6.57,1.44l-18.18.18a2.658,2.658,0,0,1-2.97-2.97V-3.69a21.492,21.492,0,0,1,.36-4.59,1.9,1.9,0,0,0-1.17-2.52,72.158,72.158,0,0,0-14.4-.72c-2.7.27-2.88,2.88-.99,3.15a12.416,12.416,0,0,1,5.67,1.71,4.456,4.456,0,0,1,1.26,3.69v6.3c0,5.58,4.77,6.57,9.54,6.57Zm9-30.33c3.51,0,6.12-.54,6.21-2.7.09-1.89-2.43-2.7-6.03-3.06a56.288,56.288,0,0,0-9.54-.09,11.91,11.91,0,0,0-2.97.72,20.579,20.579,0,0,1-5.94,1.26c-9.45.27-29.25.36-37.89.36a165.191,165.191,0,0,1-17.82-.9c-5.04-.63-5.58,1.53-1.98,3.24a41.649,41.649,0,0,0,8.64,3.15c3.6.81,5.58.54,7.38-.09a28.187,28.187,0,0,1,4.95-1.26c4.86-.45,15.3-.9,22.14-.9ZM342.72-1.53c0,8.28.63,15.84,3.42,15.84,3.51-.09,5.22-8.19,4.95-21.15V-61.38a18.459,18.459,0,0,1,.9-5.49,1.783,1.783,0,0,0-1.26-2.43,59.221,59.221,0,0,0-15.93-2.25c-2.88,0-3.33,2.79-1.26,3.06a17.78,17.78,0,0,1,7.38,2.79c1.44,1.17,1.8,3.15,1.8,6.03ZM327.96-34.56c0-8.1-5.94-15.39-16.02-17.1a1.867,1.867,0,0,1-.9-.54,1.108,1.108,0,0,1-.18-.9,11.4,11.4,0,0,0,.72-2.07c.09-.63-.09-1.44-1.8-1.71a34.231,34.231,0,0,0-5.22-.54c-2.79,0-2.97,1.71-1.62,2.34s1.53,1.17,1.53,1.8c-.09.81-.72,1.26-1.8,1.44-9.72,1.44-16.56,8.19-16.56,17.28,0,9.72,8.82,17.55,20.97,17.55C319.41-17.01,327.96-24.66,327.96-34.56ZM311.94-23.22a12.014,12.014,0,0,1-4.86.99c-7.2,0-12.15-5.67-12.15-12.96,0-7.56,4.95-13.05,12.15-13.05,7.38,0,12.06,6.21,12.06,13.05C319.14-29.7,316.44-25.2,311.94-23.22ZM427.59-34.47c0,6.66,1.08,11.34,3.42,11.34,2.52,0,5.13-6.39,5.13-15.66v-22.5l.36-2.88a11.877,11.877,0,0,1,.63-2.7,1.7,1.7,0,0,0-1.17-2.43c-4.32-1.44-11.7-2.25-16.29-2.25-2.7,0-3.42,2.79-1.26,3.06a16.874,16.874,0,0,1,7.38,2.79c1.53,1.17,1.8,3.15,1.8,6.03v11.7c-3.15.09-6.3.18-8.46.18a85.79,85.79,0,0,1-9-.36,4.654,4.654,0,0,0-1.98.09l2.07-8.73a12.02,12.02,0,0,1,.63-1.62l.81-1.53c.63-1.17.36-2.43-1.71-2.79a31.35,31.35,0,0,0-7.2-.27,7.1,7.1,0,0,0-2.34.81,8.085,8.085,0,0,1-2.34.45,74.2,74.2,0,0,1-11.79.27c-3.87-.27-8.19-.45-11.88-.72-3.33-.27-3.96,1.17-1.53,2.52a26.373,26.373,0,0,0,6.3,2.88,6.823,6.823,0,0,0,4.41.18,22.062,22.062,0,0,1,5.76-1.26c2.07-.27,7.56-.45,11.52-.45v11.16c-1.35,0-4.5.09-7.74.09h-4.41a19.052,19.052,0,0,1-2.7-.09c-3.87-.45-9.63-.9-13.05-.9-2.97,0-3.6,2.97-.99,3.24,3.15.45,5.04,1.17,5.04,4.41v8.37c0,5.4,2.16,7.2,8.01,6.84,9-.45,22.23-4.05,30.15-7.38,2.43-.99,3.15-3.87-.36-2.97-7.65,2.16-18.27,4.41-25.74,4.68-2.07.09-3.33-.72-3.33-2.97v-9.54h21.69q2.43,0,3.24-1.08l4.41,1.8a8.15,8.15,0,0,0,6.3-.27,31.684,31.684,0,0,1,4.86-1.35,4.458,4.458,0,0,1,1.35-.09Zm1.17,41.31a8.593,8.593,0,0,0,1.35-4.68c0-6.75-7.65-12.06-17.01-12.06S396.36-4.59,396.36,2.16s7.38,12.06,16.74,12.06C420.21,14.22,426.15,11.25,428.76,6.84ZM417.78-16.92a18.516,18.516,0,0,1,.99-5.49,1.783,1.783,0,0,0-1.26-2.43,30.276,30.276,0,0,0-13.23-.99c-2.7.45-2.52,2.97-.27,3.24,5.13.99,6.12,1.98,5.85,6.84-4.95,0-9.54-.18-11.43-.18-5.4-.09-9-.36-12.15-.63-5.67-.45-6.3,1.71-1.71,3.6a41.242,41.242,0,0,0,5.94,2.52,9.114,9.114,0,0,0,6.3-.18,9.885,9.885,0,0,1,3.78-1.26c8.28-.72,26.82-.63,37.71-.36,3.87,0,5.22-3.51.9-4.95-2.16-.81-6.66-.99-10.53-.63a6.752,6.752,0,0,0-2.7.81,18.667,18.667,0,0,1-3.87.81,26.776,26.776,0,0,1-4.32.36Zm3.87,18.81a8.147,8.147,0,0,1-8.37,8.19,8.248,8.248,0,0,1-8.55-8.19c0-4.59,3.51-8.01,8.55-8.01A8.056,8.056,0,0,1,421.65,1.89Zm83.61,7.29a3.548,3.548,0,0,0,3.6,3.15c2.79,0,4.86-3.51,4.86-8.91V-14.49c.27-1.44.18-2.88.45-3.51A1.9,1.9,0,0,0,513-20.52a58.285,58.285,0,0,0-12.78-1.35c-2.43,0-2.52,2.7-.9,2.97a8.725,8.725,0,0,1,4.86,2.16,5.153,5.153,0,0,1,1.08,3.96v3.06l-25.65.18v-2.52a11.744,11.744,0,0,1,.36-3.06,1.8,1.8,0,0,0-1.08-2.52,48.112,48.112,0,0,0-12.15-1.26c-2.43,0-2.61,2.52-.99,2.79a7.8,7.8,0,0,1,4.41,2.07c.99.99,1.08,2.7,1.08,4.05V5.58c.09,5.85,1.8,7.92,3.96,7.92,2.52,0,4.05-2.88,4.59-4.14ZM516.6-40.5c6.03,2.7,8.19-.81,4.86-4.14a23.956,23.956,0,0,0-6.93-4.41,8.2,8.2,0,0,0-3.6-.63,11.04,11.04,0,0,1-4.05-.63c-2.43-.72-9.72-3.69-14.31-5.58a33.99,33.99,0,0,0,4.23-4.86,14.477,14.477,0,0,0,1.89-2.61c.72-1.44.36-2.61-2.07-3.69a50.528,50.528,0,0,0-10.98-3.42c-3.6-.45-4.5,1.62-1.26,3.15,2.97,1.35,3.51,2.61,2.34,4.86-5.22,9.54-18.09,18.99-28.62,22.59-3.06,1.17-2.61,3.78,3.78,2.16,9.63-2.43,19.8-8.28,27.63-15.12Zm9.99,12.6c3.51,0,6.12-.54,6.21-2.7.09-1.89-2.43-2.7-6.03-3.06a56.289,56.289,0,0,0-9.54-.09,11.911,11.911,0,0,0-2.97.72,20.579,20.579,0,0,1-5.94,1.26c-9.45.27-29.25.36-37.89.36a165.192,165.192,0,0,1-17.82-.9c-5.04-.63-5.58,1.53-1.98,3.24a41.648,41.648,0,0,0,8.64,3.15c3.6.81,5.58.54,7.38-.09a28.187,28.187,0,0,1,4.95-1.26c4.86-.45,15.3-.9,22.14-.9ZM505.26,5.13l-25.65.18V-5.49l25.65-.18Zm90.18-6.66c0,8.28.63,15.84,3.6,15.84,3.33-.09,5.04-8.19,4.77-21.15V-61.38a18.515,18.515,0,0,1,.99-5.49,1.783,1.783,0,0,0-1.26-2.43,58.874,58.874,0,0,0-16.02-2.25c-2.79,0-3.24,2.79-1.17,3.06a17.389,17.389,0,0,1,7.29,2.79c1.53,1.17,1.8,3.15,1.8,6.03v32.49c-9.45,3.6-26.37,8.01-35.82,8.46-1.71.09-3.15-.63-3.15-3.06V-47.61a30.312,30.312,0,0,1,.81-4.14,1.751,1.751,0,0,0-1.17-2.43,73.686,73.686,0,0,0-15.3-.99c-2.61,0-2.88,2.88-.9,3.15a14.016,14.016,0,0,1,5.94,1.89,4.535,4.535,0,0,1,1.62,3.96v27c0,5.4,2.52,6.84,7.92,6.48,12.69-.72,29.7-6.75,40.05-11.07Zm79.56,0c0,8.28.63,15.84,3.51,15.84,3.51-.09,5.04-8.19,4.95-21.15V-30.96h13.68c6.21,0,7.47-4.32.99-5.76-2.88-.27-7.47-.54-8.28.54-1.44,1.44-4.14,1.71-6.39,1.98V-61.38a18.458,18.458,0,0,1,.9-5.49c.36-1.35-.18-2.16-1.17-2.43a61.577,61.577,0,0,0-16.11-2.25c-2.7,0-3.42,2.79-1.26,3.06a16.874,16.874,0,0,1,7.38,2.79c1.53,1.17,1.8,3.15,1.8,6.03v34.56c-8.91,3.15-27.18,6.75-34.65,7.02-1.71,0-2.79-.27-2.79-2.7V-49.5h11.52c4.23,0,8.37-.09,11.52-.09,5.13,0,5.58-5.22,0-5.67a37.977,37.977,0,0,0-8.46,0,4.71,4.71,0,0,0-2.43.9,5.682,5.682,0,0,1-1.98.72,48.92,48.92,0,0,1-10.26.27c-4.86-.45-12.06-.99-14.4-.72-2.88.27-3.24,2.52-.81,3.15,3.96.81,6.12,1.44,6.12,5.04v27.54c0,5.4,2.25,6.93,7.38,6.57,11.52-.99,29.79-6.12,39.24-9.99Z" transform="translate(-1.46 71.55)" fill="#222"/></svg>